<?xml version="1.0" standalone="no"?>
<!DOCTYPE svg PUBLIC "-//W3C//DTD SVG 20010904//EN"
 "http://www.w3.org/TR/2001/REC-SVG-20010904/DTD/svg10.dtd">
<svg version="1.0" xmlns="http://www.w3.org/2000/svg"
 width="700.000000pt" height="700.000000pt" viewBox="0 0 700.000000 700.000000"
 preserveAspectRatio="xMidYMid meet">
<metadata>
Created by potrace 1.11, written by Peter Selinger 2001-2013
</metadata>
<g transform="translate(0.000000,700.000000) scale(0.100000,-0.100000)"
fill="#000000" stroke="none">
<path d="M3157 6739 c-126 -14 -269 -68 -376 -142 -25 -17 -90 -73 -145 -124
-123 -114 -146 -124 -366 -152 -283 -37 -356 -67 -487 -198 -46 -46 -83 -87
-83 -91 0 -18 119 -22 723 -22 l619 0 76 66 c204 174 442 287 753 355 87 19
134 23 289 23 215 0 297 -14 520 -89 197 -66 178 -62 156 -37 -28 32 -172 125
-288 187 -155 82 -456 175 -658 204 -194 28 -576 39 -733 20z"/>
<path d="M4000 6310 c-161 -17 -327 -68 -495 -150 -115 -57 -214 -122 -222
-146 -3 -8 76 -13 274 -17 220 -4 302 -9 393 -26 406 -73 796 -286 1122 -613
339 -340 478 -610 560 -1084 19 -110 22 -167 22 -389 1 -237 -1 -268 -22 -355
-71 -294 -146 -519 -229 -684 -19 -37 -32 -70 -29 -73 9 -9 72 44 208 176 153
148 221 228 318 377 271 415 339 791 228 1264 -62 266 -154 486 -289 687 -137
204 -395 484 -581 631 -231 181 -576 339 -848 387 -113 19 -305 27 -410 15z"/>
<path d="M1175 5859 c-33 -5 -83 -20 -112 -34 -92 -45 -173 -155 -173 -234 0
-25 9 -26 74 -6 79 24 103 21 111 -16 9 -41 -13 -62 -86 -83 -64 -18 -113 -49
-143 -89 -17 -23 -21 -43 -21 -100 0 -62 7 -91 54 -217 30 -80 59 -151 66
-158 10 -11 19 -10 52 6 88 45 203 63 396 63 155 0 236 -15 287 -53 78 -57 80
-179 4 -250 -16 -15 -56 -39 -89 -54 -52 -24 -75 -28 -181 -32 -182 -6 -261
23 -400 144 l-62 54 -20 -48 c-74 -175 -66 -417 22 -589 60 -118 54 -116 122
-53 60 54 143 98 224 118 65 16 176 22 610 32 430 11 471 16 602 78 161 76
264 176 338 327 79 162 95 339 45 521 -15 54 -29 108 -32 120 -5 20 0 21 94
28 184 13 262 44 360 143 76 75 102 128 103 201 0 72 -29 125 -87 163 l-47 29
-550 0 -551 0 -28 -44 c-69 -110 -231 -106 -292 8 l-20 36 -305 -1 c-168 -1
-332 -5 -365 -10z"/>
<path d="M3520 5862 c0 -6 9 -31 20 -57 11 -26 23 -71 26 -100 4 -29 9 -57 13
-62 3 -5 65 -33 137 -62 194 -77 398 -205 516 -323 111 -111 271 -345 335
-491 78 -178 107 -289 123 -468 12 -144 4 -230 -35 -364 -84 -290 -271 -595
-555 -905 -166 -181 -229 -258 -295 -360 -146 -225 -210 -442 -204 -684 2 -69
9 -130 14 -135 8 -8 79 22 230 95 200 96 658 304 670 304 3 0 4 -278 3 -617
l-3 -618 -23 -40 c-35 -62 -82 -89 -161 -93 -122 -7 -186 27 -263 141 -23 34
-42 63 -43 65 -6 8 -335 -201 -335 -212 0 -18 71 -126 115 -174 124 -137 334
-212 560 -199 300 18 482 157 558 426 21 74 21 95 25 820 l3 744 81 86 c130
137 216 261 290 420 86 184 155 410 184 601 33 223 13 647 -42 870 -99 396
-422 819 -831 1088 -236 155 -488 256 -722 292 -112 16 -391 26 -391 12z"/>
<path d="M3461 5425 l-71 -87 26 -31 c138 -171 191 -277 236 -475 19 -79 23
-126 22 -252 -1 -191 -13 -265 -74 -450 -52 -159 -147 -349 -255 -510 -35 -52
-152 -196 -260 -320 -592 -678 -802 -1049 -822 -1457 -13 -268 73 -530 244
-745 84 -105 75 -107 195 29 177 200 346 345 607 519 l166 110 0 205 c1 177 4
217 24 304 67 289 176 477 471 810 173 196 247 288 336 421 183 274 254 479
254 732 0 65 -5 145 -10 180 -22 131 -120 374 -205 507 -150 235 -407 443
-685 554 -131 52 -118 54 -199 -44z"/>
<path d="M3151 5225 l-95 -31 -1 -195 c-1 -175 -3 -201 -24 -264 -50 -151
-104 -236 -237 -374 -126 -132 -237 -214 -509 -378 -805 -486 -1130 -844
-1250 -1379 -63 -282 -35 -588 87 -943 60 -176 175 -377 352 -615 124 -167
358 -401 551 -552 163 -128 328 -244 345 -244 4 0 6 69 6 152 0 179 10 226 86
387 l49 103 -59 72 c-209 254 -312 527 -312 830 0 226 44 397 170 651 109 221
266 451 484 709 250 296 294 348 380 463 173 230 271 420 331 643 83 313 44
626 -106 847 -55 81 -121 153 -138 151 -9 0 -59 -15 -110 -33z"/>
<path d="M5803 2594 c-204 -31 -360 -139 -443 -309 -60 -121 -73 -233 -44
-373 47 -230 187 -369 515 -511 187 -81 211 -92 277 -134 79 -49 112 -102 112
-176 0 -67 -19 -110 -65 -148 -52 -43 -128 -65 -227 -64 -164 0 -260 55 -388
218 l-25 32 -160 -94 c-88 -52 -164 -96 -169 -98 -20 -7 52 -113 134 -197 75
-77 98 -93 190 -138 149 -73 250 -96 425 -97 170 0 261 18 390 80 210 99 315
266 316 498 1 180 -46 308 -152 416 -97 100 -209 167 -459 276 -251 110 -297
149 -307 264 -5 52 -2 66 21 104 53 92 196 121 304 62 51 -28 99 -73 132 -124
l16 -24 159 103 c88 56 162 104 164 106 8 8 -92 135 -146 184 -133 122 -350
177 -570 144z"/>
</g>
</svg>
